<?xml version="1.0" encoding="UTF-8"?>
<svg version="1.1" xmlns="http://www.w3.org/2000/svg" width="310" height="310">
<path d="M0 0 C0.82757813 0.70640625 1.65515625 1.4128125 2.5078125 2.140625 C31.14461215 27.09683285 50.33239327 63.87812149 53 102 C53.18661563 106.95812104 53.24560611 111.91377491 53.25 116.875 C53.25067474 117.56152649 53.25134949 118.24805298 53.25204468 118.9553833 C53.19951181 152.70505061 42.65505062 184.19324792 22 211 C21.39800781 211.80695313 20.79601562 212.61390625 20.17578125 213.4453125 C-5.02945039 246.31251182 -42.337249 264.50414792 -82.73046875 270.3984375 C-121.1465078 274.80585903 -161.81985318 263.9697989 -192.27416992 239.93530273 C-223.7691277 214.33373814 -246.31039068 178.3695299 -250.83666992 137.41259766 C-252.05209943 119.4591232 -252.19772089 100.5499235 -248 83 C-247.81195801 82.18241211 -247.62391602 81.36482422 -247.43017578 80.52246094 C-242.71777972 60.61568043 -234.18901335 42.41899059 -222 26 C-221.31808594 25.07574219 -220.63617188 24.15148438 -219.93359375 23.19921875 C-194.81517736 -8.97332596 -159.06331102 -30.53896112 -118.375 -35.625 C-116.704375 -35.810625 -116.704375 -35.810625 -115 -36 C-113.989375 -36.12375 -112.97875 -36.2475 -111.9375 -36.375 C-71.62403733 -40.48861864 -30.28954629 -26.60950795 0 0 Z M-110 0 C-111.8746394 0.0725147 -113.74970952 0.13442574 -115.625 0.1875 C-142.35866534 2.22754052 -168.60069006 18.13663358 -186.4375 37.625 C-199.18321304 52.8433225 -208.57272909 69.50212005 -213 89 C-213.29648438 90.1446875 -213.59296875 91.289375 -213.8984375 92.46875 C-220.96750337 123.3391661 -214.69668783 156.29306538 -198 183 C-193.05420227 190.19349269 -193.05420227 190.19349269 -186 195 C-160.79182628 179.06819678 -160.79182628 179.06819678 -138 160 C-138.36403272 156.32265256 -139.63790163 153.50587548 -141.3125 150.25 C-150.31387282 130.67724747 -150.48287272 108.96160922 -143.21875 88.83544922 C-135.81651136 69.68301348 -121.99890973 55.00547117 -103.2890625 46.3515625 C-84.66835434 38.69982257 -64.13476409 36.37180737 -45 44 C-35.73351117 48.08074209 -27.55323159 53.22288028 -20 60 C-19.39027344 60.51691406 -18.78054687 61.03382812 -18.15234375 61.56640625 C-4.0517335 74.38222286 3.96158242 94.84120942 5.16015625 113.4921875 C5.84397162 135.43374148 -1.59954721 155.47621565 -16.45947266 171.64501953 C-30.74974405 186.33932418 -50.71999452 193.28391379 -70.87890625 194 C-87.00245004 194.2145209 -100.8413649 189.46313597 -115 182 C-116.3315532 181.32978489 -117.66415573 180.66162098 -119 180 C-119.44730469 180.53109375 -119.89460938 181.0621875 -120.35546875 181.609375 C-123.68346775 185.49795379 -126.91808142 188.88485161 -131 192 C-131.76054687 192.76441406 -132.52109375 193.52882812 -133.3046875 194.31640625 C-140.98034711 201.95869343 -149.55471708 208.25662155 -158.578125 214.1875 C-159.37734375 214.785625 -160.1765625 215.38375 -161 216 C-161 216.66 -161 217.32 -161 218 C-134.02572513 233.67531608 -101.94697842 240.26432473 -71.18115234 232.58203125 C-50.44174672 227.04780884 -32.72912096 218.75013003 -17 204 C-16.18144531 203.24976563 -15.36289063 202.49953125 -14.51953125 201.7265625 C1.98118509 185.99266086 11.70222126 165.92884303 17 144 C17.26554688 142.92105469 17.53109375 141.84210938 17.8046875 140.73046875 C22.21977288 118.14095655 19.72108259 90.60872413 9 70 C8.19369141 68.39125 8.19369141 68.39125 7.37109375 66.75 C-4.80140994 42.93700207 -22.98383449 23.93758521 -47 12 C-47.67675781 11.63261719 -48.35351562 11.26523437 -49.05078125 10.88671875 C-63.26179754 3.35168939 -77.8684337 0.15812199 -93.8125 -0.6875 C-94.72080566 -0.73616211 -95.62911133 -0.78482422 -96.56494141 -0.83496094 C-101.22686717 -1.03656704 -105.3990963 -0.90032072 -110 0 Z " fill="#1B065F" transform="translate(254,39)"/>
<path d="M0 0 C2.462051 1.91241882 4.80078374 3.89878727 7.1171875 5.984375 C8.14199219 6.86996094 8.14199219 6.86996094 9.1875 7.7734375 C23.60353665 21.05880461 32.03476606 41.14084134 33.27734375 60.4765625 C33.96192562 82.44271116 26.5204753 102.49591789 11.58300781 118.6315918 C-3.20276498 133.85795075 -22.80604508 141.24231502 -43.76171875 141.984375 C-60.65027732 142.20907428 -76.80103616 137.3722259 -90.8828125 127.984375 C-92.03910156 129.17546875 -92.03910156 129.17546875 -93.21875 130.390625 C-94.23150567 131.42213541 -95.24454102 132.45337127 -96.2578125 133.484375 C-96.76570313 134.00902344 -97.27359375 134.53367188 -97.796875 135.07421875 C-99.12113854 136.41590681 -100.49887115 137.70433315 -101.8828125 138.984375 C-102.5428125 138.984375 -103.2028125 138.984375 -103.8828125 138.984375 C-104.08132812 139.53738281 -104.27984375 140.09039062 -104.484375 140.66015625 C-106.45069762 143.92820642 -109.25909966 145.90923169 -112.2578125 148.171875 C-112.87688477 148.64729736 -113.49595703 149.12271973 -114.13378906 149.61254883 C-115.41357984 150.59297048 -116.69616098 151.56976002 -117.98144531 152.54296875 C-119.79758706 153.9197665 -121.60297192 155.30954353 -123.40625 156.703125 C-131.60424508 162.984375 -131.60424508 162.984375 -133.8828125 162.984375 C-134.2128125 163.644375 -134.5428125 164.304375 -134.8828125 164.984375 C-140.86502486 160.76856392 -146.71713785 156.42845029 -152.3828125 151.796875 C-153.3625 150.99894531 -154.3421875 150.20101562 -155.3515625 149.37890625 C-157.80294649 147.05992726 -159.32072182 144.9555137 -160.8828125 141.984375 C-160.38579834 141.67846436 -159.88878418 141.37255371 -159.37670898 141.05737305 C-148.18197567 134.14225946 -137.34845175 126.95970516 -126.8828125 118.984375 C-125.95686279 118.28272217 -125.95686279 118.28272217 -125.01220703 117.56689453 C-118.19809116 112.56540937 -118.19809116 112.56540937 -111.8828125 106.984375 C-112.24684522 103.30702756 -113.52071413 100.49025048 -115.1953125 97.234375 C-123.75903644 78.61325433 -124.62608615 57.32157387 -117.8828125 37.984375 C-116.6912131 34.89337411 -115.3901632 31.86960822 -114.0078125 28.859375 C-113.69263672 28.17278809 -113.37746094 27.48620117 -113.05273438 26.77880859 C-110.64269805 21.858519 -107.55188604 18.02385271 -103.8828125 13.984375 C-103.32335937 13.28570312 -102.76390625 12.58703125 -102.1875 11.8671875 C-76.96466311 -19.1444972 -31.52287518 -22.04038427 0 0 Z " fill="#331FAF" transform="translate(226.8828125,92.015625)"/>
<path d="M0 0 C0 0.66 0 1.32 0 2 C-1.52753906 2.56654297 -1.52753906 2.56654297 -3.0859375 3.14453125 C-37.32152547 16.27587757 -66.4583396 41.81369949 -81.85644531 75.32128906 C-93.06137093 101.56818143 -99.84803344 133.63230092 -103 162 C-103.66 162 -104.32 162 -105 162 C-119.23416676 129.79418097 -125.81677758 97.70826831 -113.5 63.6171875 C-103.01640919 38.33644508 -83.54920867 15.7624658 -57.91796875 5.0859375 C-38.66617551 -2.07871915 -20.27872006 -5.30435499 0 0 Z " fill="#DE008C" transform="translate(175,55)"/>
<path d="M0 0 C1 2 1 2 0.55371094 3.8815918 C-8.54909909 29.63039262 -19.79636096 57.05641294 -39.640625 76.6171875 C-41.13663087 78.01180299 -41.13663087 78.01180299 -42.1875 80.1875 C-44.85429255 84.32562637 -48.26102524 87.80083476 -52 91 C-52.66 91 -53.32 91 -54 91 C-54.19851562 91.55300781 -54.39703125 92.10601562 -54.6015625 92.67578125 C-56.56788512 95.94383142 -59.37628716 97.92485669 -62.375 100.1875 C-62.99407227 100.66292236 -63.61314453 101.13834473 -64.25097656 101.62817383 C-65.53076734 102.60859548 -66.81334848 103.58538502 -68.09863281 104.55859375 C-69.91477456 105.9353915 -71.72015942 107.32516853 -73.5234375 108.71875 C-81.72143258 115 -81.72143258 115 -84 115 C-84.33 115.66 -84.66 116.32 -85 117 C-90.98221236 112.78418892 -96.83432535 108.44407529 -102.5 103.8125 C-103.96953125 102.61560547 -103.96953125 102.61560547 -105.46875 101.39453125 C-107.92013399 99.07555226 -109.43790932 96.9711387 -111 94 C-110.50298584 93.69408936 -110.00597168 93.38817871 -109.49389648 93.07299805 C-98.29809633 86.15722546 -87.47213636 78.96786683 -77 71 C-75.77477815 70.07677174 -74.54951775 69.15359462 -73.32421875 68.23046875 C-67.36784072 63.81228446 -67.36784072 63.81228446 -61.88671875 58.83984375 C-59.97606734 56.97666194 -58.3866701 56.13607329 -56 55 C-49.46844303 50.24977675 -43.50074414 44.81945351 -37.5703125 39.3515625 C-35.49737215 37.45504261 -33.39608984 35.62413428 -31.25 33.8125 C-19.60291639 23.65432192 -9.22366989 12.38363087 0 0 Z " fill="#DE008C" transform="translate(177,140)"/>
<path d="M0 0 C0 0.66 0 1.32 0 2 C-1.52753906 2.56654297 -1.52753906 2.56654297 -3.0859375 3.14453125 C-16.96065503 8.47280704 -29.74866317 15.51430431 -41.25366211 24.97631836 C-41.82995361 25.3141333 -42.40624512 25.65194824 -43 26 C-44.485 25.505 -44.485 25.505 -46 25 C-44.8803014 23.99406757 -43.7540588 22.9954151 -42.625 22 C-41.99851562 21.443125 -41.37203125 20.88625 -40.7265625 20.3125 C-39 19 -39 19 -37 19 C-37 18.34 -37 17.68 -37 17 C-35.37932343 15.927067 -33.69595852 14.94947485 -32 14 C-30.64227008 13.17689544 -29.28699342 12.34973665 -27.93359375 11.51953125 C-26.43514584 10.61677239 -24.93644188 9.71443842 -23.4375 8.8125 C-22.68275391 8.34908203 -21.92800781 7.88566406 -21.15039062 7.40820312 C-20.41884766 6.97056641 -19.68730469 6.53292969 -18.93359375 6.08203125 C-18.27415771 5.68218018 -17.61472168 5.2823291 -16.93530273 4.87036133 C-15 4 -15 4 -11 4 C-11 3.01 -11 2.02 -11 1 C-26.52034772 0.54892423 -40.15184729 2.07390698 -55 7 C-55 7.66 -55 8.32 -55 9 C-55.804375 9.2475 -56.60875 9.495 -57.4375 9.75 C-65.35082525 12.52660535 -71.30767491 15.70703334 -77.73828125 21.1953125 C-80 23 -80 23 -82.23046875 24.0546875 C-84.35913402 24.93113251 -84.35913402 24.93113251 -85 28 C-86.65055223 29.35323053 -88.31932432 30.68436904 -90 32 C-100.83519884 43.91871872 -108.79449599 57.62904737 -112.37890625 73.34375 C-113 76 -113 76 -114.125 79.3125 C-120.32930669 98.36858484 -116.70363759 123.48519143 -110 142 C-110 142.99 -110 143.98 -110 145 C-109.01 145.33 -108.02 145.66 -107 146 C-106.67 147.98 -106.34 149.96 -106 152 C-105.34 152 -104.68 152 -104 152 C-103.97421875 151.43796875 -103.9484375 150.8759375 -103.921875 150.296875 C-103.01097744 136.79902934 -99.90247508 123.41212575 -95.99609375 110.4921875 C-95.06324924 107.2217444 -94.28715701 103.95737047 -93.55175781 100.63916016 C-90.39037424 86.41293408 -84.66655801 73.88647318 -78 61 C-77.01 61.495 -77.01 61.495 -76 62 C-77.26008321 66.02871676 -78.783312 69.67607658 -80.6875 73.4375 C-92.92173323 99.97455662 -99.77832615 133.00493538 -103 162 C-103.66 162 -104.32 162 -105 162 C-119.23416676 129.79418097 -125.81677758 97.70826831 -113.5 63.6171875 C-103.01640919 38.33644508 -83.54920867 15.7624658 -57.91796875 5.0859375 C-38.66617551 -2.07871915 -20.27872006 -5.30435499 0 0 Z " fill="#D7066F" transform="translate(175,55)"/>
<path d="M0 0 C3.9706162 1.32353873 4.94088589 3.71090906 6.875 7.1875 C7.22578613 7.81317871 7.57657227 8.43885742 7.93798828 9.08349609 C18.53632781 28.56007682 20.21282152 48.72660251 15 70 C8.74402883 91.05947804 -5.26543527 105.88037473 -23.87109375 116.6640625 C-28.16698223 118.94924538 -31.06110754 120.26955223 -36 120 C-34.44224547 116.88449093 -31.81607912 116.61405241 -28.625 115.375 C-10.44870526 107.93818735 1.93603828 93.59827543 10 76 C16.9657532 56.11157362 16.49578354 35.52529942 8.47265625 16.01953125 C6.429043 11.82931097 3.99216184 7.98432097 1.35546875 4.14453125 C0 2 0 2 0 0 Z " fill="#321D99" transform="translate(242,109)"/>
<path d="M0 0 C0.99 0.495 0.99 0.495 2 1 C2.33129883 3.05932617 2.33129883 3.05932617 2.45703125 5.79296875 C2.51463623 6.80472168 2.57224121 7.81647461 2.6315918 8.85888672 C2.6912915 9.9573291 2.75099121 11.05577148 2.8125 12.1875 C5.44747853 50.69618303 20.53389924 81.54251801 46 110 C45.01 110.33 44.02 110.66 43 111 C30.3200634 98.01148088 20.45222108 83.53743492 13 67 C12.53078125 65.98679687 12.0615625 64.97359375 11.578125 63.9296875 C2.49008529 43.34135063 -0.62993504 22.35102848 0 0 Z " fill="#150D32" transform="translate(3,154)"/>
<path d="M0 0 C6.51717317 0.48579846 11.59264763 2.19832693 17.5 4.9375 C18.37003662 5.33646484 19.24007324 5.73542969 20.13647461 6.14648438 C32.94075921 12.16432266 44.36611396 19.65808142 55 29 C55.82757813 29.70640625 56.65515625 30.4128125 57.5078125 31.140625 C69.46230573 41.55864732 78.3611688 52.89481474 86.84594727 66.19750977 C87.87863491 67.81044247 88.93763751 69.40645627 90 71 C89.625 73.1875 89.625 73.1875 89 75 C88.38253906 73.97261719 87.76507813 72.94523437 87.12890625 71.88671875 C81.9625967 63.39105543 76.60041003 55.47237055 70 48 C69.14664063 47.01386719 68.29328125 46.02773438 67.4140625 45.01171875 C51.97598517 27.44723837 31.22034663 12.66218849 9 5 C5.98045965 3.70931319 2.98775501 2.36247161 0 1 C0 0.67 0 0.34 0 0 Z " fill="#130B34" transform="translate(199,10)"/>
<path d="M0 0 C0.66 0.33 1.32 0.66 2 1 C-0.43187904 3.9877371 -2.80287249 6.80768047 -5.5625 9.5 C-8.17808665 12.18265297 -10.0187334 14.81796576 -12 18 C-12.49886719 18.77859375 -12.99773437 19.5571875 -13.51171875 20.359375 C-16.5319814 25.18594485 -18.67957175 29.41357279 -20 35 C-20.51423994 36.43987183 -21.0355637 37.8772259 -21.5625 39.3125 C-27.13090965 55.96148238 -23.86685589 74.92356215 -18 91 C-17.44183594 92.05445313 -16.88367188 93.10890625 -16.30859375 94.1953125 C-15 97 -15 97 -16 100 C-26.75170594 82.33648309 -30.0125734 61.56307538 -25.5 41.375 C-23.9812914 35.28371234 -21.7419427 29.57370428 -19.125 23.875 C-18.65223633 22.84511963 -18.65223633 22.84511963 -18.16992188 21.79443359 C-15.7610409 16.87650275 -12.68570743 13.02363749 -9 9 C-7.98679687 7.81277344 -7.98679687 7.81277344 -6.953125 6.6015625 C-6.11007813 5.62316406 -6.11007813 5.62316406 -5.25 4.625 C-4.67765625 3.95726563 -4.1053125 3.28953125 -3.515625 2.6015625 C-2 1 -2 1 0 0 Z " fill="#361E9B" transform="translate(132,97)"/>
<path d="M0 0 C-1 3 -1 3 -2.72387695 3.91967773 C-3.47113037 4.17177002 -4.21838379 4.4238623 -4.98828125 4.68359375 C-6.25115967 5.11260986 -6.25115967 5.11260986 -7.53955078 5.55029297 C-8.91216064 5.98946045 -8.91216064 5.98946045 -10.3125 6.4375 C-11.25077637 6.74316895 -12.18905273 7.04883789 -13.15576172 7.36376953 C-25.96662888 11.40829125 -39.52570938 14.57837943 -53 15 C-53.68433105 15.02578125 -54.36866211 15.0515625 -55.07373047 15.078125 C-68.0141513 15.51227625 -80.26776441 14.27554849 -93 12 C-93 11.34 -93 10.68 -93 10 C-91.77990234 10.10284302 -91.77990234 10.10284302 -90.53515625 10.20776367 C-58.46560395 12.72616144 -29.64165164 0 0 0 Z " fill="#1A103D" transform="translate(216,295)"/>
<path d="M0 0 C-0.92039062 0.52207031 -1.84078125 1.04414063 -2.7890625 1.58203125 C-11.51138552 6.61785079 -19.50084929 12.13281508 -27.25292969 18.55859375 C-29.02071639 20.01709189 -30.80973865 21.44618747 -32.6015625 22.875 C-41.04368136 29.72234376 -47.64175109 37.21169174 -54 46 C-54.63292969 46.84046875 -55.26585938 47.6809375 -55.91796875 48.546875 C-61.78499741 56.54858915 -67.52317148 65.64195567 -71.13671875 74.91796875 C-72 77 -72 77 -74 78 C-73.4545703 72.62961526 -71.5904678 68.66763207 -69.0625 64 C-68.66208496 63.25596924 -68.26166992 62.51193848 -67.84912109 61.74536133 C-61.09712736 49.47579226 -52.69925393 39.04174171 -43 29 C-42.14921875 28.08605469 -41.2984375 27.17210938 -40.421875 26.23046875 C-33.31454057 18.79330294 -10.93670002 -4.3695694 0 0 Z " fill="#160E32" transform="translate(89,20)"/>
<path d="M0 0 C0.33 0 0.66 0 1 0 C2.89712257 23.90374438 -12.97795423 50.81817248 -27 69 C-27.62519531 69.83015625 -28.25039063 70.6603125 -28.89453125 71.515625 C-34.07637969 78.22775455 -39.91705212 84.11832613 -46 90 C-46.99 89.67 -47.98 89.34 -49 89 C-48.10539063 88.14019531 -47.21078125 87.28039062 -46.2890625 86.39453125 C-20.94547764 61.74741132 -8.40148122 33.99851746 0 0 Z " fill="#130C2F" transform="translate(303,181)"/>
<path d="M0 0 C3.45069875 2.21597863 4.76784086 4.06247461 6.21875 7.875 C6.59193359 8.85138428 6.96511719 9.82776855 7.34960938 10.83374023 C7.72923828 11.87860596 8.10886719 12.92347168 8.5 14 C9.09264648 15.60693726 9.09264648 15.60693726 9.69726562 17.24633789 C13.06818105 26.65960524 15.51387984 36.11462636 17 46 C17.1016748 46.65202393 17.20334961 47.30404785 17.30810547 47.97583008 C18.23122205 54.85702339 18.15143171 61.77410618 18.13037109 68.70385742 C18.12496707 70.82542927 18.13036749 72.94679358 18.13671875 75.06835938 C18.13605865 76.4270838 18.13477889 77.78580809 18.1328125 79.14453125 C18.13168457 80.36503174 18.13055664 81.58553223 18.12939453 82.84301758 C18.02311747 85.43597733 17.76955761 87.54039606 17 90 C16.34 90 15.68 90 15 90 C15.01047363 89.14994385 15.02094727 88.2998877 15.03173828 87.42407227 C15.41431512 64.626815 15.41431512 64.626815 13 42 C12.79375 40.80117187 12.5875 39.60234375 12.375 38.3671875 C10.07459218 26.47303344 5.73137793 15.40637135 0.91796875 4.328125 C0 2 0 2 0 0 Z " fill="#130B33" transform="translate(289,86)"/>
<path d="M0 0 C24.5564785 -0.83209754 44.35958592 3.07558072 63 20 C65.39499921 22.27827542 67.73126691 24.59604441 70 27 C69.505 28.485 69.505 28.485 69 30 C68.38125 29.195625 67.7625 28.39125 67.125 27.5625 C65.25835959 24.96125481 65.25835959 24.96125481 63 24 C63 23.34 63 22.68 63 22 C62.48695313 21.77054688 61.97390625 21.54109375 61.4453125 21.3046875 C58.75471055 19.86912672 56.32669364 18.20625029 53.82299805 16.47094727 C47.43341414 12.05613638 41.41061912 8.44896201 34 6 C33.2793335 5.74105957 32.55866699 5.48211914 31.81616211 5.21533203 C24.83224839 2.86575722 18.20533418 2.46166378 10.875 2.3125 C9.72773438 2.27833984 8.58046875 2.24417969 7.3984375 2.20898438 C4.59905626 2.12733576 1.79995551 2.05791908 -1 2 C-0.67 1.34 -0.34 0.68 0 0 Z " fill="#321D9E" transform="translate(171,78)"/>
<path d="M0 0 C0 0.66 0 1.32 0 2 C-1.40834668 2.9845777 -2.82406698 3.96032038 -4.27539062 4.88037109 C-7.05999348 6.68815545 -9.63922014 8.76624525 -12.25 10.8125 C-27.9678442 23 -27.9678442 23 -31 23 C-31 23.66 -31 24.32 -31 25 C-31.60328125 25.32613281 -32.2065625 25.65226562 -32.828125 25.98828125 C-33.62734375 26.42527344 -34.4265625 26.86226562 -35.25 27.3125 C-36.03890625 27.74175781 -36.8278125 28.17101562 -37.640625 28.61328125 C-40.03172974 29.9534484 -40.03172974 29.9534484 -42.171875 31.66796875 C-44 33 -44 33 -46 33 C-46 33.66 -46 34.32 -46 35 C-48.475 35.495 -48.475 35.495 -51 36 C-51.33 35.34 -51.66 34.68 -52 34 C-51.50298584 33.69408936 -51.00597168 33.38817871 -50.49389648 33.07299805 C-37.94998792 25.32448362 -25.93294984 17.16570369 -14.2890625 8.125 C-13.69335449 7.66303223 -13.09764648 7.20106445 -12.48388672 6.72509766 C-10.85401104 5.45598861 -9.2314331 4.17752312 -7.609375 2.8984375 C-5.01251149 1.00910267 -3.24310076 0 0 0 Z " fill="#D90773" transform="translate(118,200)"/>
<path d="M0 0 C3.68587609 1.1584182 5.80483081 2.66023483 8.4375 5.44921875 C22.12262505 19.03170536 40.28847148 26.23579815 58 33 C58 33.33 58 33.66 58 34 C52.39625965 34.48612889 48.5847132 32.86906929 43.625 30.5625 C42.83843018 30.20269043 42.05186035 29.84288086 41.24145508 29.47216797 C28.03355285 23.32482722 16.28717346 16.21759299 5 7 C4.05511719 6.30519531 3.11023437 5.61039062 2.13671875 4.89453125 C1.43160156 4.26933594 0.72648437 3.64414062 0 3 C0 2.01 0 1.02 0 0 Z " fill="#140C31" transform="translate(52,268)"/>
<path d="M0 0 C0.71373779 0.11375977 1.42747559 0.22751953 2.1628418 0.34472656 C7.12622523 1.22216618 11.57277376 2.74781727 16.25 4.625 C16.25 5.285 16.25 5.945 16.25 6.625 C15.46238281 6.43164062 14.67476563 6.23828125 13.86328125 6.0390625 C12.77402344 5.77867188 11.68476563 5.51828125 10.5625 5.25 C9.50675781 4.99476562 8.45101562 4.73953125 7.36328125 4.4765625 C5.99389324 4.18459035 4.62252714 3.90184023 3.25 3.625 C2.38334717 3.44565918 1.51669434 3.26631836 0.6237793 3.08154297 C-9.75456427 1.19669998 -20.05891601 1.40086547 -30.5625 1.5 C-32.43033371 1.5100552 -34.2981727 1.51917653 -36.16601562 1.52734375 C-40.69414309 1.5491438 -45.2220117 1.58353198 -49.75 1.625 C-49.75 1.295 -49.75 0.965 -49.75 0.625 C-34.30534585 -4.76267005 -15.8681588 -2.5660994 0 0 Z " fill="#130C33" transform="translate(181.75,4.375)"/>
<path d="M0 0 C13.26800215 6.05962869 22.56911125 23.54120247 29 36 C29.33 36.99 29.66 37.98 30 39 C29.01 39 28.02 39 27 39 C26.59910156 38.20078125 26.19820313 37.4015625 25.78515625 36.578125 C19.82428695 25.06188772 12.44071143 15.18076028 3.45410156 5.83178711 C0 2.20275521 0 2.20275521 0 0 Z " fill="#170C3C" transform="translate(234,68)"/>
<path d="M0 0 C0.66 0 1.32 0 2 0 C0.3882188 4.19463554 -2.74544892 6.80416409 -5.9375 9.8125 C-12.00113489 15.67237231 -16.93405579 21.98605165 -21.7578125 28.8828125 C-23.4153823 31.1872388 -24.90197021 33.12137202 -27 35 C-26.59461529 29.32461399 -24.43303458 26.34833532 -20.9375 22.125 C-20.1947583 21.20473022 -20.1947583 21.20473022 -19.43701172 20.26586914 C-15.57279316 15.54078509 -11.45091753 11.17779304 -7 7 C-6.03799259 6.04535489 -5.0791637 5.0874849 -4.125 4.125 C-2.75 2.75 -1.375 1.375 0 0 Z " fill="#D5076E" transform="translate(126,82)"/>
<path d="M0 0 C1.13356934 0.18900879 1.13356934 0.18900879 2.29003906 0.38183594 C7.47308482 1.34808482 7.47308482 1.34808482 9.75 3.625 C3.73574073 3.72905293 -2.08520076 3.32294177 -8.0625 2.6875 C-18.11480367 1.66852151 -28.15740448 1.06330701 -38.25 0.625 C-38.25 0.295 -38.25 -0.035 -38.25 -0.375 C-25.94066286 -2.90208246 -12.32039544 -2.06099504 0 0 Z " fill="#1E0B44" transform="translate(175.25,37.375)"/>
<path d="M0 0 C0.99 0.66 1.98 1.32 3 2 C-3.67205089 7.82973217 -10.4153379 13.4665429 -17.625 18.625 C-18.21619629 19.05022949 -18.80739258 19.47545898 -19.41650391 19.91357422 C-21.93584663 21.68974369 -24.05697311 23.01899104 -27 24 C-27.33 24.66 -27.66 25.32 -28 26 C-28.66 25.34 -29.32 24.68 -30 24 C-30 23.34 -30 22.68 -30 22 C-29.030625 21.54625 -28.06125 21.0925 -27.0625 20.625 C-23.92920418 19.34213779 -23.92920418 19.34213779 -23 17 C-21.3984375 16.140625 -21.3984375 16.140625 -19.375 15.25 C-14.92275813 13.10310045 -11.61919851 10.32215846 -8 7 C-6.5232531 5.70556753 -5.04408065 4.41389705 -3.5625 3.125 C-2.37468641 2.08369093 -1.18707084 1.0421557 0 0 Z " fill="#D3066D" transform="translate(120,231)"/>
<path d="M0 0 C0.66 0 1.32 0 2 0 C0.87182425 2.98326886 -0.39485297 5.85693456 -1.8046875 8.71484375 C-6.21187125 17.67463133 -9.65242164 26.2544609 -12 36 C-12.66 36 -13.32 36 -14 36 C-14.33 36.99 -14.66 37.98 -15 39 C-14.12973011 28.20865336 -11.05701694 19.41297477 -5.875 9.9375 C-5.41996094 9.08478516 -4.96492188 8.23207031 -4.49609375 7.35351562 C-1.18128765 1.18128765 -1.18128765 1.18128765 0 0 Z " fill="#200740" transform="translate(54,92)"/>
<path d="M0 0 C-0.33 0.99 -0.66 1.98 -1 3 C-2.91430664 3.95141602 -2.91430664 3.95141602 -5.41015625 4.75390625 C-6.31830078 5.05103516 -7.22644531 5.34816406 -8.16210938 5.65429688 C-9.59780273 6.10385742 -9.59780273 6.10385742 -11.0625 6.5625 C-11.99255859 6.86607422 -12.92261719 7.16964844 -13.88085938 7.48242188 C-28.84681632 12.30981066 -28.84681632 12.30981066 -35.5 12.125 C-36.3559375 12.10695313 -37.211875 12.08890625 -38.09375 12.0703125 C-38.7228125 12.04710937 -39.351875 12.02390625 -40 12 C-37.20949258 9.20949258 -34.88640868 9.35146801 -31 8.75 C-21.14032363 7.09419387 -9.50967971 0 0 0 Z " fill="#140D30" transform="translate(216,295)"/>
<path d="M0 0 C0.87398437 0.13277344 1.74796875 0.26554688 2.6484375 0.40234375 C10.8349071 1.57796884 18.91207379 2.32560017 27.18310547 2.57006836 C32.78851729 2.78851729 32.78851729 2.78851729 35 5 C26.51520025 6.86545243 18.43170619 6.09425223 9.9375 4.6875 C9.18694336 4.56987305 8.43638672 4.45224609 7.66308594 4.33105469 C5.75421679 3.98977996 3.87252069 3.50390092 2 3 C1.34 2.01 0.68 1.02 0 0 Z " fill="#321C9B" transform="translate(157,228)"/>
<path d="M0 0 C0.66 0.33 1.32 0.66 2 1 C-6.88933505 9.6306507 -19.0407747 19.10317378 -31 23 C-32.34373003 22.71141988 -33.68007082 22.38298285 -35 22 C-33.40285156 21.19949219 -33.40285156 21.19949219 -31.7734375 20.3828125 C-21.86774369 15.32961267 -12.85757634 9.7128554 -4 3 C-3.21238281 2.40960938 -2.42476562 1.81921875 -1.61328125 1.2109375 C-1.08089844 0.81132812 -0.54851562 0.41171875 0 0 Z " fill="#110A2A" transform="translate(252,272)"/>
<path d="M0 0 C8.61573169 3.6814424 14.12716598 13.33041704 19.125 20.875 C19.87148804 21.98113647 19.87148804 21.98113647 20.63305664 23.10961914 C21.08672607 23.8133667 21.54039551 24.51711426 22.0078125 25.2421875 C22.41660645 25.8697998 22.82540039 26.49741211 23.24658203 27.14404297 C24.19356426 29.4768229 23.82476915 30.66885029 23 33 C22.38253906 31.97261719 21.76507813 30.94523437 21.12890625 29.88671875 C16.4770651 22.24216229 11.72948223 15.10468446 5.91796875 8.28515625 C3.69810935 5.64031359 1.82051146 2.92864887 0 0 Z " fill="#110B2E" transform="translate(265,52)"/>
<path d="M0 0 C6.44193428 1.61048357 11.60601456 4.37759403 17.1875 7.875 C17.86425781 8.29765137 18.54101562 8.72030273 19.23828125 9.15576172 C23.43125078 11.8370013 27.24118396 14.73807255 31 18 C30.01 18.33 29.02 18.66 28 19 C25.69541424 17.59376232 23.59139905 16.17140809 21.4375 14.5625 C17.58807519 11.30878591 17.58807519 11.30878591 13 10 C13 9.34 13 8.68 13 8 C10.69 7.67 8.38 7.34 6 7 C6 6.34 6 5.68 6 5 C4.01924973 3.63823419 2.01920337 2.30406884 0 1 C0 0.67 0 0.34 0 0 Z " fill="#1D0E40" transform="translate(200,46)"/>
<path d="M0 0 C0.33 0.66 0.66 1.32 1 2 C-2.51130744 9.64875712 -7.55860774 16.25067203 -12.984375 22.625 C-14.74379333 24.69811307 -16.39532306 26.80626444 -18 29 C-18.66 28.67 -19.32 28.34 -20 28 C-18.01072624 24.51877092 -15.83709674 21.49544834 -13.25 18.4375 C-9.38519236 13.70275411 -6.37743896 8.72392927 -3.4453125 3.37109375 C-2 1 -2 1 0 0 Z " fill="#190E40" transform="translate(261,212)"/>
<path d="M0 0 C2.45977798 3.68966697 2.24483921 5.53538825 2.23046875 9.93359375 C2.23001053 10.60793961 2.22955231 11.28228546 2.2290802 11.97706604 C2.22606254 13.40180218 2.21819073 14.82653516 2.20581055 16.2512207 C2.18759578 18.4260637 2.18530071 20.60047942 2.18554688 22.77539062 C2.14446079 34.35656198 2.14446079 34.35656198 1 38 C0.34 38 -0.32 38 -1 38 C-0.67 25.46 -0.34 12.92 0 0 Z " fill="#0F092C" transform="translate(305,138)"/>
<path d="M0 0 C-0.99 0 -1.98 0 -3 0 C-3 0.66 -3 1.32 -3 2 C-3.95253662 2.30236572 -3.95253662 2.30236572 -4.92431641 2.61083984 C-7.82468475 3.53178482 -10.72484395 4.45338673 -13.625 5.375 C-14.62402344 5.69210938 -15.62304688 6.00921875 -16.65234375 6.3359375 C-21.44566599 7.85964258 -26.23478738 9.38991109 -31 11 C-31.66 10.34 -32.32 9.68 -33 9 C-4.85203571 -1.56307191 -4.85203571 -1.56307191 0 0 Z " fill="#1A103A" transform="translate(124,7)"/>
<path d="M0 0 C0.66 0 1.32 0 2 0 C1.22046887 7.19741851 0.34236687 14.37984859 -0.5625 21.5625 C-0.70107422 22.66658203 -0.83964844 23.77066406 -0.98242188 24.90820312 C-1.32104863 27.60554039 -1.66025361 30.30280357 -2 33 C-2.33 33 -2.66 33 -3 33 C-3.33082999 21.506721 -3.06025293 11.16628003 0 0 Z " fill="#0F0A2C" transform="translate(7,118)"/>
<path d="M0 0 C0.66 0.33 1.32 0.66 2 1 C-2.71514606 7.97021592 -10.2114709 12.19612952 -18 15 C-18.99 15 -19.98 15 -21 15 C-21 14.34 -21 13.68 -21 13 C-20.47043701 12.71278076 -19.94087402 12.42556152 -19.39526367 12.12963867 C-16.98969569 10.82098648 -14.58859168 9.50434586 -12.1875 8.1875 C-11.35412109 7.73568359 -10.52074219 7.28386719 -9.66210938 6.81835938 C-8.85966797 6.37685547 -8.05722656 5.93535156 -7.23046875 5.48046875 C-6.49207764 5.07723389 -5.75368652 4.67399902 -4.99291992 4.25854492 C-3.03000271 3.01894695 -1.56567428 1.70426786 0 0 Z " fill="#190E40" transform="translate(227,250)"/>
<path d="M0 0 C0.66015625 1.80078125 0.66015625 1.80078125 1 4 C-0.00390625 5.60546875 -0.00390625 5.60546875 -1.5625 7.1875 C-4.71427782 10.56597181 -7.10736813 14.14231889 -9.5078125 18.08203125 C-11.15748479 20.20242156 -12.53469348 21.00012246 -15 22 C-13.63039704 19.10573705 -12.06663808 16.53597916 -10.21484375 13.92578125 C-9.41916992 12.80139648 -9.41916992 12.80139648 -8.60742188 11.65429688 C-8.05634766 10.88150391 -7.50527344 10.10871094 -6.9375 9.3125 C-6.10508789 8.1359082 -6.10508789 8.1359082 -5.25585938 6.93554688 C-1.15162295 1.15162295 -1.15162295 1.15162295 0 0 Z " fill="#2321AE" transform="translate(154,194)"/>
<path d="M0 0 C0.99 0.33 1.98 0.66 3 1 C3 1.99 3 2.98 3 4 C2.34 4 1.68 4 1 4 C0.73445313 4.57234375 0.46890625 5.1446875 0.1953125 5.734375 C-1.05676891 8.1076012 -2.4936352 10.12213286 -4.125 12.25 C-4.66382813 12.95640625 -5.20265625 13.6628125 -5.7578125 14.390625 C-6.16773438 14.92171875 -6.57765625 15.4528125 -7 16 C-7.66 15.01 -8.32 14.02 -9 13 C-8.375 10.4375 -8.375 10.4375 -7 8 C-5.66666667 7.33333333 -4.33333333 6.66666667 -3 6 C-1.78130071 3.49552484 -1.78130071 3.49552484 -1 1 C-0.67 0.67 -0.34 0.34 0 0 Z " fill="#240946" transform="translate(67,72)"/>
<path d="M0 0 C-1 2 -1 2 -3.87109375 3.0703125 C-5.04800781 3.41835937 -6.22492188 3.76640625 -7.4375 4.125 C-9.19900391 4.65480469 -9.19900391 4.65480469 -10.99609375 5.1953125 C-14 6 -14 6 -16 6 C-16 6.66 -16 7.32 -16 8 C-17.65 8 -19.3 8 -21 8 C-20.67 7.01 -20.34 6.02 -20 5 C-17.05078125 3.61328125 -17.05078125 3.61328125 -13.3125 2.3125 C-11.48138672 1.65701172 -11.48138672 1.65701172 -9.61328125 0.98828125 C-6.20205051 0.05526354 -3.50996714 -0.19949122 0 0 Z " fill="#311D9A" transform="translate(169,80)"/>
<path d="M0 0 C0.99 0 1.98 0 3 0 C3.58265625 0.59296875 4.1653125 1.1859375 4.765625 1.796875 C7.51072525 4.50358224 10.23089353 5.70159316 13.75 7.25 C15.50570312 8.03117188 15.50570312 8.03117188 17.296875 8.828125 C18.18890625 9.21484375 19.0809375 9.6015625 20 10 C20 10.33 20 10.66 20 11 C12.55544977 10.51448585 5.98350324 7.62832429 0.375 2.6875 C-0.07875 2.130625 -0.5325 1.57375 -1 1 C-0.67 0.67 -0.34 0.34 0 0 Z " fill="#381E9D" transform="translate(136,217)"/>
<path d="M0 0 C6.32532275 4.39497902 11.67248457 9.45050476 17 15 C16.01 15.33 15.02 15.66 14 16 C13.49210937 15.48050781 12.98421875 14.96101563 12.4609375 14.42578125 C9.25298925 11.17578124 6.10463912 7.99877358 2.5 5.1875 C1.675 4.465625 0.85 3.74375 0 3 C0 2.01 0 1.02 0 0 Z " fill="#191038" transform="translate(250,36)"/>
<path d="M0 0 C7.59064664 0.48701051 14.67059167 1.99763587 22 4 C22 4.33 22 4.66 22 5 C14.12309743 5.41136629 7.49701701 4.436168 0 2 C0 1.34 0 0.68 0 0 Z " fill="#130934" transform="translate(120,270)"/>
<path d="M0 0 C1 2 1 2 0.07421875 5.22265625 C-0.38002553 6.50546342 -0.84263454 7.78533182 -1.3125 9.0625 C-1.53873047 9.71283203 -1.76496094 10.36316406 -1.99804688 11.03320312 C-3.74552579 15.8727629 -3.74552579 15.8727629 -6 17 C-5.67 15.02 -5.34 13.04 -5 11 C-5.99 11.33 -6.98 11.66 -8 12 C-6.59023295 8.96147295 -4.91129772 6.4060405 -2.875 3.75 C-2.06675781 2.69039062 -2.06675781 2.69039062 -1.2421875 1.609375 C-0.83226562 1.07828125 -0.42234375 0.5471875 0 0 Z " fill="#E80581" transform="translate(177,140)"/>
<path d="M0 0 C0.53625 0.226875 1.0725 0.45375 1.625 0.6875 C-9.78676471 7.81985294 -9.78676471 7.81985294 -14.375 7.4375 C-15.035 7.19 -15.695 6.9425 -16.375 6.6875 C-16.375 6.0275 -16.375 5.3675 -16.375 4.6875 C-15.17875 4.419375 -13.9825 4.15125 -12.75 3.875 C-9.85812692 3.16991434 -7.81604693 2.39727437 -5.125 1 C-2.375 -0.3125 -2.375 -0.3125 0 0 Z " fill="#210943" transform="translate(114.375,43.3125)"/>
<path d="M0 0 C0.66 0.33 1.32 0.66 2 1 C-3.37092556 6.01037731 -8.64541431 10.30278651 -15 14 C-14.70494708 10.86681903 -14.0347585 10.03000327 -11.6015625 7.9296875 C-10.61929688 7.25164062 -9.63703125 6.57359375 -8.625 5.875 C-7.64789063 5.19179688 -6.67078125 4.50859375 -5.6640625 3.8046875 C-3.78102011 2.52907814 -1.89243943 1.26162629 0 0 Z " fill="#160F31" transform="translate(252,272)"/>
<path d="M0 0 C5.85272256 0.45020943 10.08220119 3.03839227 15 6 C15 6.66 15 7.32 15 8 C9.06 6.515 9.06 6.515 3 5 C3 4.01 3 3.02 3 2 C2.01 1.67 1.02 1.34 0 1 C0 0.67 0 0.34 0 0 Z " fill="#170840" transform="translate(94,259)"/>
<path d="M0 0 C0.66 0 1.32 0 2 0 C1.48223379 4.10447392 -0.64627444 5.95699523 -3.5625 8.75 C-4.80193359 9.94882813 -4.80193359 9.94882813 -6.06640625 11.171875 C-6.70449219 11.77515625 -7.34257813 12.3784375 -8 13 C-8.66 12.01 -9.32 11.02 -10 10 C-9.278125 9.46375 -8.55625 8.9275 -7.8125 8.375 C-5.62202856 6.52526856 -4.06588641 4.95216984 -2.3125 2.75 C-1.549375 1.8425 -0.78625 0.935 0 0 Z " fill="#D20A78" transform="translate(133,218)"/>
<path d="M0 0 C-2.18386418 0.67848208 -4.37230084 1.3422551 -6.5625 2 C-7.78066406 2.37125 -8.99882812 2.7425 -10.25390625 3.125 C-13.97923349 3.99514943 -17.19065949 4.15688404 -21 4 C-20.67 3.34 -20.34 2.68 -20 2 C-17.19578251 1.32993961 -14.46301309 0.78318354 -11.625 0.3125 C-10.84382812 0.17005859 -10.06265625 0.02761719 -9.2578125 -0.11914062 C-3.38787673 -1.12929224 -3.38787673 -1.12929224 0 0 Z " fill="#150C35" transform="translate(196,270)"/>
<path d="M0 0 C2.46091594 2.46091594 3.02845243 4.518796 4.125 7.8125 C4.47820312 8.85019531 4.83140625 9.88789062 5.1953125 10.95703125 C5.94839581 13.80485601 6.16215769 16.07575626 6 19 C3.63201169 16.12790213 2.35167408 13.63088082 1.3125 10.0625 C1.06113281 9.22847656 0.80976563 8.39445312 0.55078125 7.53515625 C-0.0121497 4.94407689 -0.09927943 2.64272387 0 0 Z " fill="#160C3C" transform="translate(266,113)"/>
<path d="M0 0 C1.86889895 2.80334843 3.27024908 5.51277094 4.6875 8.5625 C5.14511719 9.53316406 5.60273437 10.50382813 6.07421875 11.50390625 C6.37972656 12.32761719 6.68523438 13.15132812 7 14 C6.67 14.66 6.34 15.32 6 16 C1.71239766 12.5994878 0.03632162 8.25909008 -1 3 C-0.67 2.01 -0.34 1.02 0 0 Z " fill="#2C0A4E" transform="translate(44,197)"/>
<path d="M0 0 C0.66 0.33 1.32 0.66 2 1 C-2.77899344 7.70459519 -2.77899344 7.70459519 -7.875 8.9375 C-8.90625 8.958125 -9.9375 8.97875 -11 9 C-8.94627416 5.91941124 -7.34328805 4.51967639 -4 3 C-2.64886795 2.02418241 -1.31053056 1.02970259 0 0 Z " fill="#D90A86" transform="translate(125,192)"/>
<path d="M0 0 C0.89525391 0.30164062 0.89525391 0.30164062 1.80859375 0.609375 C0.21369295 1.80929099 -1.39266772 2.99398818 -3.00390625 4.171875 C-3.89722656 4.83316406 -4.79054688 5.49445312 -5.7109375 6.17578125 C-6.52949219 6.64886719 -7.34804687 7.12195312 -8.19140625 7.609375 C-9.18140625 7.279375 -10.17140625 6.949375 -11.19140625 6.609375 C-8.34034453 3.44152865 -4.47948922 -0.79848293 0 0 Z " fill="#2F0B45" transform="translate(95.19140625,53.390625)"/>
<path d="M0 0 C0.66 0 1.32 0 2 0 C1.34 5.61 0.68 11.22 0 17 C-0.66 17 -1.32 17 -2 17 C-1.85941524 14.54126232 -1.71277001 12.08314825 -1.5625 9.625 C-1.52318359 8.92632812 -1.48386719 8.22765625 -1.44335938 7.5078125 C-1.11328125 2.2265625 -1.11328125 2.2265625 0 0 Z " fill="#CE0B7E" transform="translate(72,200)"/>
<path d="M0 0 C0.66 0 1.32 0 2 0 C0.31326082 4.49797113 -1.81673892 8.72886302 -4 13 C-4.66 12.01 -5.32 11.02 -6 10 C-5.05065487 8.32819726 -4.09026687 6.66266064 -3.125 5 C-2.59132812 4.071875 -2.05765625 3.14375 -1.5078125 2.1875 C-1.01023437 1.465625 -0.51265625 0.74375 0 0 Z " fill="#2E0C46" transform="translate(54,92)"/>
<path d="M0 0 C1.26823485 3.65393537 0.75715321 6.49070026 0.0625 10.25 C-0.13214844 11.32765625 -0.32679687 12.4053125 -0.52734375 13.515625 C-0.68332031 14.33546875 -0.83929688 15.1553125 -1 16 C-1.33 16 -1.66 16 -2 16 C-3.39648438 4.93554688 -3.39648438 4.93554688 -2 1 C-1.34 0.67 -0.68 0.34 0 0 Z " fill="#370F55" transform="translate(40,128)"/>
<path d="M0 0 C0.66 0 1.32 0 2 0 C1.03644647 9.41002278 1.03644647 9.41002278 0 14 C-0.66 13.67 -1.32 13.34 -2 13 C-1.85769192 11.58297487 -1.71099254 10.1663904 -1.5625 8.75 C-1.48128906 7.96109375 -1.40007813 7.1721875 -1.31640625 6.359375 C-1.02365007 4.17635361 -0.57935581 2.1226818 0 0 Z " fill="#161032" transform="translate(7,118)"/>
<path d="M0 0 C0.33 0 0.66 0 1 0 C1.69508823 6.51244208 2.31909709 12.5510809 1 19 C0.67 19 0.34 19 0 19 C-0.19600577 16.77156512 -0.38146569 14.54220107 -0.5625 12.3125 C-0.66691406 11.07113281 -0.77132813 9.82976562 -0.87890625 8.55078125 C-0.98493841 5.44164467 -0.77228525 2.99189028 0 0 Z " fill="#180E43" transform="translate(304,126)"/>
<path d="M0 0 C0.33 0 0.66 0 1 0 C0.67 3.63 0.34 7.26 0 11 C-0.66 11 -1.32 11 -2 11 C-2.33 11.99 -2.66 12.98 -3 14 C-2.58846263 9.02906176 -2.20399168 4.55491614 0 0 Z " fill="#1C0837" transform="translate(42,117)"/>
<path d="M0 0 C-3.11910856 1.79275866 -5.67682428 2.34290718 -9.25 2.625 C-10.14203125 2.69976562 -11.0340625 2.77453125 -11.953125 2.8515625 C-12.62859375 2.90054688 -13.3040625 2.94953125 -14 3 C-13 1 -13 1 -9.8125 -0.1875 C-6.03923017 -0.99163947 -3.70527523 -0.90372567 0 0 Z " fill="#2A0D49" transform="translate(131,40)"/>
<path d="M0 0 C3.28788824 3.11016455 5.83735988 6.01618925 8 10 C4.9054129 9.6684371 3.97195314 8.97117406 1.75 6.6875 C0 4 0 4 0 0 Z " fill="#330B4F" transform="translate(56,222)"/>
<path d="M0 0 C1.12377697 3.30435084 0.89554742 5.0506862 -0.4375 8.25 C-0.72496094 8.95640625 -1.01242187 9.6628125 -1.30859375 10.390625 C-1.53675781 10.92171875 -1.76492188 11.4528125 -2 12 C-2.66 12 -3.32 12 -4 12 C-3.5317879 7.22423661 -2.75668002 3.95523655 0 0 Z " fill="#140A3A" transform="translate(268,195)"/>
<path d="M0 0 C4.59306496 1.4859916 7.43569245 3.85014682 11 7 C8 8 8 8 6.2109375 7.109375 C5.60507813 6.66078125 4.99921875 6.2121875 4.375 5.75 C3.76398438 5.31171875 3.15296875 4.8734375 2.5234375 4.421875 C1 3 1 3 0 0 Z " fill="#160B3A" transform="translate(220,57)"/>
<path d="M0 0 C0.99 0.66 1.98 1.32 3 2 C-0.75 5 -0.75 5 -3 5 C-3.33 5.66 -3.66 6.32 -4 7 C-4.66 6.34 -5.32 5.68 -6 5 C-6 4.34 -6 3.68 -6 3 C-4.02 2.01 -2.04 1.02 0 0 Z " fill="#C70573" transform="translate(96,250)"/>
<path d="M0 0 C3.03852705 1.40976705 5.5939595 3.08870228 8.25 5.125 C8.95640625 5.66382813 9.6628125 6.20265625 10.390625 6.7578125 C10.92171875 7.16773438 11.4528125 7.57765625 12 8 C11.01 8.33 10.02 8.66 9 9 C6.73828125 7.63671875 6.73828125 7.63671875 4.3125 5.6875 C3.50425781 5.05199219 2.69601563 4.41648438 1.86328125 3.76171875 C1.24839844 3.18035156 0.63351563 2.59898437 0 2 C0 1.34 0 0.68 0 0 Z " fill="#0F0554" transform="translate(74,244)"/>
<path d="M0 0 C0 0.66 0 1.32 0 2 C-3.9813783 3.3271261 -7.85045227 3.06915913 -12 3 C-11.67 2.34 -11.34 1.68 -11 1 C-7.29882394 0.15882362 -3.78728969 -0.11139087 0 0 Z " fill="#2C1A96" transform="translate(205,229)"/>
<path d="M0 0 C3.91211733 1.15585285 6.8745041 2.35534962 10 5 C2.25 4.125 2.25 4.125 0 3 C0 2.01 0 1.02 0 0 Z " fill="#1C1241" transform="translate(217,16)"/>
<path d="M0 0 C5 2.45614035 5 2.45614035 7 4 C7.33 4.99 7.66 5.98 8 7 C7.4225 6.690625 6.845 6.38125 6.25 6.0625 C4.15705816 5.07416636 2.25464725 4.4831387 0 4 C0 3.34 0 2.68 0 2 C-0.66 1.67 -1.32 1.34 -2 1 C-1.34 0.67 -0.68 0.34 0 0 Z " fill="#23114B" transform="translate(213,52)"/>
<path d="M0 0 C0.66 0.33 1.32 0.66 2 1 C0.71372289 2.17260611 -0.57919783 3.3379283 -1.875 4.5 C-2.59429687 5.1496875 -3.31359375 5.799375 -4.0546875 6.46875 C-6 8 -6 8 -8 8 C-8 6 -8 6 -6.25 4 C-4.18705488 2.166271 -2.58043332 0.94615888 0 0 Z " fill="#1C21B2" transform="translate(125,190)"/>
<path d="M0 0 C0 0.66 0 1.32 0 2 C-5.29411765 6 -5.29411765 6 -9 6 C-4.53846154 0 -4.53846154 0 0 0 Z " fill="#DF056D" transform="translate(118,200)"/>
<path d="M0 0 C-2.92965912 2.92965912 -5.680053 3.94133569 -9.8125 4.125 C-10.534375 4.08375 -11.25625 4.0425 -12 4 C-8.71298741 1.21868166 -4.24676932 -2.12338466 0 0 Z " fill="#D10974" transform="translate(125,59)"/>
<path d="M0 0 C4.21912747 0.4794463 6.79663178 1.16625119 10 4 C3.47692308 3.38461538 3.47692308 3.38461538 1.0625 1.4375 C0.711875 0.963125 0.36125 0.48875 0 0 Z " fill="#220A45" transform="translate(94,259)"/>
<path d="M0 0 C1.25541557 3.76624671 0.37061958 5.37188934 -1 9 C-2.38111722 6.7252187 -3.05694702 5.49828639 -2.75 2.8125 C-2 1 -2 1 0 0 Z " fill="#191039" transform="translate(301,196)"/>
<path d="M0 0 C2.31 1.98 4.62 3.96 7 6 C6.01 6.33 5.02 6.66 4 7 C2 5.1875 2 5.1875 0 3 C0 2.01 0 1.02 0 0 Z " fill="#1F1540" transform="translate(260,45)"/>
<path d="M0 0 C7.75 0.75 7.75 0.75 10 3 C3.47692308 3.36923077 3.47692308 3.36923077 1.0625 1.5 C0.5365625 0.7575 0.5365625 0.7575 0 0 Z " fill="#0F0A2A" transform="translate(111,302)"/>
<path d="M0 0 C1.32 0 2.64 0 4 0 C4.33 0.99 4.66 1.98 5 3 C3.35 3.33 1.7 3.66 0 4 C0 2.68 0 1.36 0 0 Z " fill="#110644" transform="translate(113,268)"/>
<path d="M0 0 C0.33 0.99 0.66 1.98 1 3 C-0.65 4.65 -2.3 6.3 -4 8 C-4 4.09161134 -2.49432124 2.88405893 0 0 Z " fill="#0F092B" transform="translate(275,247)"/>
<path d="M0 0 C0 3 0 3 -2.5 5.6875 C-3.325 6.450625 -4.15 7.21375 -5 8 C-4.45773019 4.20411134 -2.79872437 2.52788007 0 0 Z " fill="#110931" transform="translate(254,224)"/>
<path d="M0 0 C1 3 1 3 0.22265625 4.82421875 C-0.8515625 6.54947917 -1.92578125 8.27473958 -3 10 C-3.33 9.34 -3.66 8.68 -4 8 C-2.98446183 4.9533855 -1.79237442 2.68856164 0 0 Z " fill="#EC0383" transform="translate(164,172)"/>
<path d="M0 0 C0.99 0.495 0.99 0.495 2 1 C2.4140625 3.06640625 2.4140625 3.06640625 2.625 5.5625 C2.69976562 6.38878906 2.77453125 7.21507812 2.8515625 8.06640625 C2.92503906 9.02353516 2.92503906 9.02353516 3 10 C0.64551835 7.44931155 0.01672076 6.28982642 -0.1875 2.75 C-0.125625 1.8425 -0.06375 0.935 0 0 Z " fill="#0D0528" transform="translate(269,122)"/>
<path d="M0 0 C0.99 0 1.98 0 3 0 C2.34 2.64 1.68 5.28 1 8 C-1 5 -1 5 -0.625 2.3125 C-0.41875 1.549375 -0.2125 0.78625 0 0 Z " fill="#2B0C48" transform="translate(43,112)"/>
<path d="M0 0 C2.31 0 4.62 0 7 0 C7 0.33 7 0.66 7 1 C4.69 1 2.38 1 0 1 C0 0.67 0 0.34 0 0 Z " fill="#431F75" transform="translate(150,272)"/>
<path d="M0 0 C2 1 2 1 2 1 Z " fill="#401F74" transform="translate(161,272)"/>
<path d="M0 0 C2 1 2 1 2 1 Z " fill="#42206E" transform="translate(143,272)"/>
<path d="" fill="#3F2380" transform="translate(0,0)"/>
<path d="M0 0 C2 1 2 1 2 1 Z " fill="#5C1C79" transform="translate(111,264)"/>
<path d="M0 0 C2 1 2 1 2 1 Z " fill="#372083" transform="translate(210,256)"/>
<path d="M0 0 C2 1 2 1 2 1 Z " fill="#89197D" transform="translate(95,256)"/>
<path d="M0 0 C2 1 2 1 2 1 Z " fill="#532EA6" transform="translate(153,230)"/>
<path d="M0 0 C2 1 2 1 2 1 Z " fill="#652EA4" transform="translate(148,230)"/>
<path d="M0 0 C2 1 2 1 2 1 Z " fill="#5D2DA3" transform="translate(151,229)"/>
<path d="M0 0 C2 1 2 1 2 1 Z " fill="#662BA3" transform="translate(146,227)"/>
<path d="" fill="#8926A3" transform="translate(0,0)"/>
<path d="" fill="#B1138A" transform="translate(0,0)"/>
<path d="" fill="#6F157B" transform="translate(0,0)"/>
<path d="" fill="#792BA4" transform="translate(0,0)"/>
<path d="M0 0 C2 1 2 1 2 1 Z " fill="#881481" transform="translate(54,103)"/>
<path d="M0 0 C2 1 2 1 2 1 Z " fill="#3F26A1" transform="translate(207,80)"/>
<path d="M0 0 C2 1 2 1 2 1 Z " fill="#3F1F7D" transform="translate(220,61)"/>
<path d="M0 0 C2 1 2 1 2 1 Z " fill="#451D7A" transform="translate(204,51)"/>
<path d="" fill="#422276" transform="translate(0,0)"/>
<path d="" fill="#402076" transform="translate(0,0)"/>
<path d="" fill="#551F7A" transform="translate(0,0)"/>
<path d="" fill="#671C7E" transform="translate(0,0)"/>
<path d="" fill="#3D2079" transform="translate(0,0)"/>
<path d="" fill="#3B227B" transform="translate(0,0)"/>
<path d="" fill="#351E80" transform="translate(0,0)"/>
<path d="" fill="#831A85" transform="translate(0,0)"/>
<path d="" fill="#9A1784" transform="translate(0,0)"/>
<path d="" fill="#472CA2" transform="translate(0,0)"/>
<path d="" fill="#632CA4" transform="translate(0,0)"/>
<path d="" fill="#B90F90" transform="translate(0,0)"/>
<path d="" fill="#672CA7" transform="translate(0,0)"/>
<path d="" fill="#352181" transform="translate(0,0)"/>
<path d="" fill="#AF138B" transform="translate(0,0)"/>
<path d="" fill="#38217C" transform="translate(0,0)"/>
<path d="" fill="#8A2AA4" transform="translate(0,0)"/>
<path d="" fill="#AE1188" transform="translate(0,0)"/>
<path d="" fill="#8727A4" transform="translate(0,0)"/>
<path d="" fill="#39229C" transform="translate(0,0)"/>
<path d="" fill="#392597" transform="translate(0,0)"/>
<path d="" fill="#8428A0" transform="translate(0,0)"/>
<path d="" fill="#82269F" transform="translate(0,0)"/>
<path d="" fill="#8228A3" transform="translate(0,0)"/>
<path d="" fill="#6C167C" transform="translate(0,0)"/>
<path d="" fill="#B0138A" transform="translate(0,0)"/>
<path d="" fill="#72147D" transform="translate(0,0)"/>
<path d="" fill="#B1148B" transform="translate(0,0)"/>
<path d="" fill="#B1148C" transform="translate(0,0)"/>
<path d="" fill="#B1148A" transform="translate(0,0)"/>
<path d="" fill="#72147A" transform="translate(0,0)"/>
<path d="" fill="#B1158A" transform="translate(0,0)"/>
<path d="" fill="#77137C" transform="translate(0,0)"/>
<path d="" fill="#70157B" transform="translate(0,0)"/>
<path d="" fill="#7C27A3" transform="translate(0,0)"/>
<path d="" fill="#371F82" transform="translate(0,0)"/>
<path d="" fill="#7927A1" transform="translate(0,0)"/>
<path d="" fill="#392184" transform="translate(0,0)"/>
<path d="" fill="#3C2382" transform="translate(0,0)"/>
<path d="" fill="#78147F" transform="translate(0,0)"/>
<path d="" fill="#B1149B" transform="translate(0,0)"/>
<path d="" fill="#362183" transform="translate(0,0)"/>
<path d="" fill="#381E86" transform="translate(0,0)"/>
<path d="" fill="#7A1379" transform="translate(0,0)"/>
<path d="" fill="#7C147F" transform="translate(0,0)"/>
<path d="" fill="#831380" transform="translate(0,0)"/>
<path d="" fill="#361E7F" transform="translate(0,0)"/>
<path d="" fill="#A2209C" transform="translate(0,0)"/>
<path d="" fill="#8A1381" transform="translate(0,0)"/>
<path d="" fill="#80157F" transform="translate(0,0)"/>
<path d="" fill="#391E82" transform="translate(0,0)"/>
<path d="" fill="#80137B" transform="translate(0,0)"/>
<path d="" fill="#B61388" transform="translate(0,0)"/>
<path d="" fill="#80117E" transform="translate(0,0)"/>
<path d="" fill="#401D7E" transform="translate(0,0)"/>
<path d="" fill="#85167F" transform="translate(0,0)"/>
<path d="" fill="#79127C" transform="translate(0,0)"/>
<path d="" fill="#7C167D" transform="translate(0,0)"/>
<path d="" fill="#7B167F" transform="translate(0,0)"/>
<path d="" fill="#581E7E" transform="translate(0,0)"/>
<path d="" fill="#641875" transform="translate(0,0)"/>
</svg>
