<?xml version="1.0" encoding="UTF-8"?>
<svg version="1.1" xmlns="http://www.w3.org/2000/svg" width="32" height="32">
<path d="M0 0 C4.8846525 2.26787438 7.73212562 5.1153475 10 10 C10.75381535 15.5997712 10.77303575 20.33499991 8.375 25.5 C3.80134327 30.3143755 0.6912538 32.25156236 -6 32.5 C-12.6912538 32.25156236 -15.80134327 30.3143755 -20.375 25.5 C-22.77820875 20.32385807 -22.87211127 15.60857767 -22 10 C-17.878834 0.37268598 -9.63267801 -1.16324063 0 0 Z M-8 4 C-4 5 -4 5 -4 5 Z M-4 5 C-4 5.66 -4 6.32 -4 7 C-1.69 7.66 0.62 8.32 3 9 C1.18777466 6.9375006 1.18777466 6.9375006 -1 5 C-1.99 5 -2.98 5 -4 5 Z M5 13 C6 15 6 15 6 15 Z M-18 14 C-18 15.65 -18 17.3 -18 19 C-17.67 19 -17.34 19 -17 19 C-17 17.35 -17 15.7 -17 14 C-17.33 14 -17.66 14 -18 14 Z M-13 15 C-13.33 17.31 -13.66 19.62 -14 22 C-13.01 21.67 -12.02 21.34 -11 21 C-11.33 19.02 -11.66 17.04 -12 15 C-12.33 15 -12.66 15 -13 15 Z M5 17 C6 19 6 19 6 19 Z M4 20 C5 22 5 22 5 22 Z M-5 24 C-5.928125 24.144375 -6.85625 24.28875 -7.8125 24.4375 C-8.534375 24.623125 -9.25625 24.80875 -10 25 C-10.33 25.66 -10.66 26.32 -11 27 C-5.39446065 28.16396662 -5.39446065 28.16396662 -0.0625 26.6875 C2.08980875 25.16126242 2.08980875 25.16126242 3 23 C0.26361242 23 -2.30667101 23.52470665 -5 24 Z " fill="#210C5E" transform="translate(22,0)"/>
<path d="M0 0 C0 0.66 0 1.32 0 2 C1.11375 2.1546875 1.11375 2.1546875 2.25 2.3125 C5.29981298 3.07495324 6.72986686 3.84337352 9 6 C9.609375 8.48046875 9.609375 8.48046875 9.75 11.1875 C9.80671875 12.08855469 9.8634375 12.98960938 9.921875 13.91796875 C9.94765625 14.60503906 9.9734375 15.29210938 10 16 C4.52256861 19.65162093 1.53623099 20.31626924 -5 20 C-6.3921875 20.3403125 -6.3921875 20.3403125 -7.8125 20.6875 C-10 21 -10 21 -11.5703125 19.84765625 C-14.43694393 16.1429659 -14.40279016 11.52509571 -14 7 C-11.04501845 0.27049124 -6.89106874 -0.83168071 0 0 Z M-9 10 C-9.33 12.31 -9.66 14.62 -10 17 C-9.01 16.67 -8.02 16.34 -7 16 C-7.33 14.02 -7.66 12.04 -8 10 C-8.33 10 -8.66 10 -9 10 Z " fill="#3721AC" transform="translate(18,5)"/>
<path d="M0 0 C0 0.66 0 1.32 0 2 C-1.36125 2.7115625 -1.36125 2.7115625 -2.75 3.4375 C-6.97922455 6.02479031 -7.72208847 10.08299905 -9.04296875 14.63671875 C-9.35878906 15.41660156 -9.67460937 16.19648438 -10 17 C-10.99 17.33 -11.98 17.66 -13 18 C-14.81333764 8.88385714 -14.81333764 8.88385714 -13.01171875 4.7109375 C-9.18009115 -0.30839138 -6.10246135 -0.73650396 0 0 Z " fill="#CE0887" transform="translate(18,5)"/>
<path d="M0 0 C0.33 0.99 0.66 1.98 1 3 C-0.21484375 5.04296875 -0.21484375 5.04296875 -1.9375 7.1875 C-2.50339844 7.90292969 -3.06929687 8.61835938 -3.65234375 9.35546875 C-4.09707031 9.89816406 -4.54179687 10.44085938 -5 11 C-7.4375 10.625 -7.4375 10.625 -10 10 C-10.33 9.34 -10.66 8.68 -11 8 C-10.37351562 7.67386719 -9.74703125 7.34773438 -9.1015625 7.01171875 C-7.87566406 6.35623047 -7.87566406 6.35623047 -6.625 5.6875 C-5.81289062 5.25824219 -5.00078125 4.82898438 -4.1640625 4.38671875 C-1.73165957 3.03221276 -1.73165957 3.03221276 0 0 Z " fill="#D50688" transform="translate(17,15)"/>
<path d="M0 0 C0.33 0.99 0.66 1.98 1 3 C-0.32 4.32 -1.64 5.64 -3 7 C-3.99 6.67 -4.98 6.34 -6 6 C-4 4 -2 2 0 0 Z " fill="#BD0892" transform="translate(17,15)"/>
</svg>
